# xmcd
#
# Track frame offsets: 
#        150
#        23222
#        45192
#        69694
#        89842
#        114443
#        131019
#        156496
#        174066
#
# Disc length: 2480 seconds
#
# Revision: 0
# Processed by: cddbd v1.5.2PL0 Copyright (c) Steve Scherf et al.
# Submitted via: ExactAudioCopy v1.0b3
#
DISCID=7209ae09
DTITLE=Ali Akacca - Saklikent 2 - Hiddencity
DYEAR=2007
DGENRE=Turkish
TTITLE0=Haykiriş
TTITLE1=Pinar Seli
TTITLE2=Serzeniş
TTITLE3=Aman Aman
TTITLE4=Sonbahar
TTITLE5=Gizem
TTITLE6=Yastayim
TTITLE7=Rumî
TTITLE8=Hayaller
EXTD=
EXTT0=
EXTT1=
EXTT2=
EXTT3=
EXTT4=
EXTT5=
EXTT6=
EXTT7=
EXTT8=
PLAYORDER=
